<svg width="151" height="68" viewBox="0 0 151 68" fill="none" xmlns="http://www.w3.org/2000/svg">
  <g clip-path="url(#clip0_1_2)">
  <path d="M71.3516 21.6084C71.548 21.4138 71.5497 21.0972 71.3555 20.9013L68.1906 17.708C67.9964 17.512 67.6798 17.5109 67.4835 17.7054C67.2872 17.9 67.2855 18.2166 67.4797 18.4125L70.2929 21.251L67.4493 24.0693C67.2529 24.2639 67.2512 24.5805 67.4454 24.7764C67.6397 24.9724 67.9562 24.9735 68.1525 24.7789L71.3516 21.6084ZM0 21L-0.0026931 21.5L70.9973 21.7535L71 21.2536L71.0027 20.7536L0.0026931 20.5L0 21Z" fill="black"/>
  <path d="M71.3517 31.7998C71.548 31.6052 71.5496 31.2886 71.3554 31.0927L68.1902 27.8991C67.9959 27.7031 67.6793 27.702 67.483 27.8965C67.2868 28.091 67.2851 28.4076 67.4793 28.6036L70.2929 31.4423L67.4496 34.2604C67.2533 34.4549 67.2517 34.7715 67.4459 34.9675C67.6401 35.1634 67.9567 35.1646 68.153 34.9701L71.3517 31.7998ZM0 31.185L-0.00262742 31.685L70.9973 31.9449L71 31.4449L71.0026 30.9449L0.00262742 30.685L0 31.185Z" fill="black"/>
  <path d="M0 31.185L71 21.2599" stroke="black"/>
  <path d="M71.3517 41.9848C71.548 41.7902 71.5496 41.4737 71.3554 41.2777L68.1902 38.0841C67.9959 37.8881 67.6793 37.887 67.483 38.0815C67.2868 38.2761 67.2851 38.5926 67.4793 38.7886L70.2929 41.6274L67.4496 44.4454C67.2533 44.6399 67.2517 44.9565 67.4459 45.1525C67.6401 45.3485 67.9567 45.3496 68.153 45.1551L71.3517 41.9848ZM0 41.3701L-0.00262742 41.87L70.9973 42.1299L71 41.63L71.0026 41.13L0.00262742 40.8701L0 41.3701Z" fill="black"/>
  <path d="M0 41.3701L71 31.4449" stroke="black"/>
  <path d="M71.3516 21.6084C71.548 21.4138 71.5497 21.0972 71.3555 20.9013L68.1906 17.708C67.9964 17.512 67.6798 17.5109 67.4835 17.7054C67.2872 17.9 67.2855 18.2166 67.4797 18.4125L70.2929 21.251L67.4493 24.0693C67.2529 24.2639 67.2512 24.5805 67.4454 24.7764C67.6397 24.9724 67.9562 24.9735 68.1525 24.7789L71.3516 21.6084ZM0 21L-0.0026931 21.5L70.9973 21.7535L71 21.2536L71.0027 20.7536L0.0026931 20.5L0 21Z" fill="black"/>
  <path d="M71.3517 31.7998C71.548 31.6052 71.5496 31.2886 71.3554 31.0927L68.1902 27.8991C67.9959 27.7031 67.6793 27.702 67.483 27.8965C67.2868 28.091 67.2851 28.4076 67.4793 28.6036L70.2929 31.4423L67.4496 34.2604C67.2533 34.4549 67.2517 34.7715 67.4459 34.9675C67.6401 35.1634 67.9567 35.1646 68.153 34.9701L71.3517 31.7998ZM0 31.185L-0.00262742 31.685L70.9973 31.9449L71 31.4449L71.0026 30.9449L0.00262742 30.685L0 31.185Z" fill="black"/>
  <path d="M0 31.185L71 21.2599" stroke="black"/>
  <path d="M71.3517 41.9848C71.548 41.7902 71.5496 41.4737 71.3554 41.2777L68.1902 38.0841C67.9959 37.8881 67.6793 37.887 67.483 38.0815C67.2868 38.2761 67.2851 38.5926 67.4793 38.7886L70.2929 41.6274L67.4496 44.4454C67.2533 44.6399 67.2517 44.9565 67.4459 45.1525C67.6401 45.3485 67.9567 45.3496 68.153 45.1551L71.3517 41.9848ZM0 41.3701L-0.00262742 41.87L70.9973 42.1299L71 41.63L71.0026 41.13L0.00262742 40.8701L0 41.3701Z" fill="black"/>
  <path d="M0 41.3701L71 31.4449" stroke="black"/>
  <path d="M71.3517 52.1698C71.548 51.9753 71.5496 51.6587 71.3554 51.4627L68.1902 48.2691C67.9959 48.0732 67.6793 48.072 67.483 48.2666C67.2868 48.4611 67.2851 48.7777 67.4793 48.9736L70.2929 51.8124L67.4496 54.6304C67.2533 54.825 67.2517 55.1415 67.4459 55.3375C67.6401 55.5335 67.9567 55.5347 68.153 55.3401L71.3517 52.1698ZM0 51.5551L-0.00262742 52.0551L70.9973 52.315L71 51.815L71.0026 51.315L0.00262742 51.0551L0 51.5551Z" fill="black"/>
  <path d="M0 51.5551L71 41.63" stroke="black"/>
  <path d="M71.3517 52.1698C71.548 51.9753 71.5496 51.6587 71.3554 51.4627L68.1902 48.2691C67.9959 48.0732 67.6793 48.072 67.483 48.2666C67.2868 48.4611 67.2851 48.7777 67.4793 48.9736L70.2929 51.8124L67.4496 54.6304C67.2533 54.825 67.2517 55.1415 67.4459 55.3375C67.6401 55.5335 67.9567 55.5347 68.153 55.3401L71.3517 52.1698ZM0 51.5551L-0.00262742 52.0551L70.9973 52.315L71 51.815L71.0026 51.315L0.00262742 51.0551L0 51.5551Z" fill="black"/>
  <path d="M0 51.5551L71 41.63" stroke="black"/>
  <path d="M71.3517 62.3548C71.548 62.1603 71.5496 61.8437 71.3554 61.6478L68.1902 58.4542C67.9959 58.2582 67.6793 58.257 67.483 58.4516C67.2868 58.6461 67.2851 58.9627 67.4793 59.1587L70.2929 61.9974L67.4496 64.8155C67.2533 65.01 67.2517 65.3266 67.4459 65.5226C67.6401 65.7185 67.9567 65.7197 68.153 65.5251L71.3517 62.3548ZM0 61.7401L-0.00262742 62.2401L70.9973 62.5L71 62L71.0026 61.5L0.00262742 61.2401L0 61.7401Z" fill="black"/>
  <path d="M0 61.7401L71 51.815" stroke="black"/>
  <path d="M71.3517 62.3548C71.548 62.1603 71.5496 61.8437 71.3554 61.6478L68.1902 58.4542C67.9959 58.2582 67.6793 58.257 67.483 58.4516C67.2868 58.6461 67.2851 58.9627 67.4793 59.1587L70.2929 61.9974L67.4496 64.8155C67.2533 65.01 67.2517 65.3266 67.4459 65.5226C67.6401 65.7185 67.9567 65.7197 68.153 65.5251L71.3517 62.3548ZM0 61.7401L-0.00262742 62.2401L70.9973 62.5L71 62L71.0026 61.5L0.00262742 61.2401L0 61.7401Z" fill="black"/>
  <path d="M0 61.7401L71 51.815" stroke="black"/>
  <circle cx="114" cy="42" r="22.5" stroke="black"/>
  <circle cx="129.5" cy="58.5" r="6.5" fill="white"/>
  <circle cx="98.5" cy="26.5" r="6.5" fill="white"/>
  <circle cx="96" cy="28" r="3.5" stroke="black"/>
  <circle cx="132" cy="56" r="3.5" stroke="black"/>
  <path d="M125.259 61.6827C125.331 61.416 125.173 61.1417 124.906 61.0699L120.561 59.901C120.294 59.8293 120.02 59.9873 119.948 60.2539C119.876 60.5206 120.034 60.7949 120.301 60.8667L124.164 61.9057L123.125 65.7684C123.053 66.0351 123.211 66.3094 123.478 66.3811C123.744 66.4529 124.019 66.2948 124.09 66.0282L125.259 61.6827ZM124 62L124.25 62.4333L125.026 61.986L124.776 61.5528L124.527 61.1195L123.75 61.5667L124 62Z" fill="black"/>
  <path d="M102.508 22.6131C102.46 22.885 102.641 23.1444 102.913 23.1924L107.345 23.9744C107.617 24.0224 107.876 23.8409 107.924 23.5689C107.972 23.297 107.79 23.0376 107.518 22.9896L103.579 22.2945L104.274 18.3554C104.322 18.0834 104.141 17.8241 103.869 17.7761C103.597 17.7281 103.338 17.9096 103.29 18.1816L102.508 22.6131ZM104 22L103.713 21.5904L102.713 22.2904L103 22.7L103.287 23.1096L104.287 22.4096L104 22Z" fill="black"/>
  <path d="M20.283 7H19.5444L21.6808 1.18182H22.408L24.5444 7H23.8058L22.0671 2.10227H22.0217L20.283 7ZM20.5558 4.72727H23.533V5.35227H20.5558V4.72727ZM25.4506 7V1.18182H26.1211V3.32955H26.1779C26.2272 3.25379 26.2953 3.1572 26.3825 3.03977C26.4715 2.92045 26.5984 2.81439 26.7631 2.72159C26.9298 2.62689 27.1552 2.57955 27.4393 2.57955C27.8067 2.57955 28.1306 2.6714 28.4109 2.85511C28.6912 3.03883 28.9099 3.29924 29.0671 3.63636C29.2243 3.97348 29.3029 4.37121 29.3029 4.82955C29.3029 5.29167 29.2243 5.69223 29.0671 6.03125C28.9099 6.36837 28.6921 6.62973 28.4137 6.81534C28.1353 6.99905 27.8143 7.09091 27.4506 7.09091C27.1703 7.09091 26.9459 7.04451 26.7773 6.9517C26.6088 6.85701 26.479 6.75 26.3881 6.63068C26.2972 6.50947 26.2272 6.40909 26.1779 6.32955H26.0984V7H25.4506ZM26.1097 4.81818C26.1097 5.14773 26.158 5.43845 26.2546 5.69034C26.3512 5.94034 26.4923 6.13636 26.6779 6.27841C26.8635 6.41856 27.0908 6.48864 27.3597 6.48864C27.64 6.48864 27.8739 6.41477 28.0614 6.26705C28.2508 6.11742 28.3929 5.91667 28.4876 5.66477C28.5842 5.41098 28.6325 5.12879 28.6325 4.81818C28.6325 4.51136 28.5851 4.23485 28.4904 3.98864C28.3976 3.74053 28.2565 3.54451 28.0671 3.40057C27.8796 3.25473 27.6438 3.18182 27.3597 3.18182C27.087 3.18182 26.8578 3.25095 26.6722 3.3892C26.4866 3.52557 26.3465 3.71686 26.2518 3.96307C26.1571 4.20739 26.1097 4.49242 26.1097 4.81818ZM33.4194 3.61364L32.8171 3.78409C32.7792 3.68371 32.7234 3.58617 32.6495 3.49148C32.5775 3.39489 32.479 3.31534 32.354 3.25284C32.229 3.19034 32.069 3.15909 31.8739 3.15909C31.6069 3.15909 31.3844 3.22064 31.2063 3.34375C31.0302 3.46496 30.9421 3.61932 30.9421 3.80682C30.9421 3.97348 31.0027 4.10511 31.1239 4.2017C31.2451 4.2983 31.4345 4.37879 31.6921 4.44318L32.3398 4.60227C32.73 4.69697 33.0207 4.84186 33.212 5.03693C33.4033 5.23011 33.4989 5.47917 33.4989 5.78409C33.4989 6.03409 33.427 6.25758 33.283 6.45455C33.141 6.65152 32.9421 6.80682 32.6864 6.92045C32.4308 7.03409 32.1334 7.09091 31.7944 7.09091C31.3493 7.09091 30.9809 6.99432 30.6893 6.80114C30.3976 6.60795 30.2129 6.32576 30.1353 5.95455L30.7717 5.79545C30.8323 6.0303 30.9469 6.20644 31.1154 6.32386C31.2859 6.44129 31.5084 6.5 31.783 6.5C32.0955 6.5 32.3436 6.43371 32.5273 6.30114C32.7129 6.16667 32.8058 6.00568 32.8058 5.81818C32.8058 5.66667 32.7527 5.53977 32.6467 5.4375C32.5406 5.33333 32.3777 5.25568 32.158 5.20455L31.4308 5.03409C31.0311 4.93939 30.7376 4.79261 30.5501 4.59375C30.3645 4.39299 30.2717 4.14205 30.2717 3.84091C30.2717 3.5947 30.3408 3.37689 30.479 3.1875C30.6192 2.99811 30.8095 2.84943 31.0501 2.74148C31.2925 2.63352 31.5671 2.57955 31.8739 2.57955C32.3058 2.57955 32.6448 2.67424 32.891 2.86364C33.1391 3.05303 33.3152 3.30303 33.4194 3.61364ZM36.4059 2.63636V3.20455H34.1445V2.63636H36.4059ZM34.8036 1.59091H35.4741V5.75C35.4741 5.93939 35.5015 6.08144 35.5565 6.17614C35.6133 6.26894 35.6853 6.33144 35.7724 6.36364C35.8614 6.39394 35.9551 6.40909 36.0536 6.40909C36.1275 6.40909 36.1881 6.4053 36.2354 6.39773C36.2828 6.38826 36.3207 6.38068 36.3491 6.375L36.4854 6.97727C36.44 6.99432 36.3765 7.01136 36.2951 7.02841C36.2137 7.04735 36.1104 7.05682 35.9854 7.05682C35.796 7.05682 35.6104 7.0161 35.4286 6.93466C35.2487 6.85322 35.0991 6.72917 34.9798 6.5625C34.8623 6.39583 34.8036 6.18561 34.8036 5.93182V1.59091ZM37.4144 7V2.63636H38.0621V3.29545H38.1076C38.1871 3.07955 38.3311 2.90436 38.5394 2.76989C38.7478 2.63542 38.9826 2.56818 39.244 2.56818C39.2932 2.56818 39.3548 2.56913 39.4286 2.57102C39.5025 2.57292 39.5584 2.57576 39.5962 2.57955V3.26136C39.5735 3.25568 39.5214 3.24716 39.44 3.2358C39.3604 3.22254 39.2762 3.21591 39.1871 3.21591C38.975 3.21591 38.7856 3.26042 38.619 3.34943C38.4542 3.43655 38.3235 3.55777 38.2269 3.71307C38.1322 3.86648 38.0849 4.04167 38.0849 4.23864V7H37.4144ZM41.6751 7.10227C41.3986 7.10227 41.1476 7.05019 40.9222 6.94602C40.6969 6.83996 40.5179 6.6875 40.3853 6.48864C40.2527 6.28788 40.1864 6.04545 40.1864 5.76136C40.1864 5.51136 40.2357 5.30871 40.3342 5.15341C40.4326 4.99621 40.5643 4.87311 40.729 4.78409C40.8938 4.69508 41.0756 4.62879 41.2745 4.58523C41.4753 4.53977 41.677 4.50379 41.8796 4.47727C42.1448 4.44318 42.3597 4.41761 42.5245 4.40057C42.6912 4.38163 42.8124 4.35038 42.8881 4.30682C42.9658 4.26326 43.0046 4.1875 43.0046 4.07955V4.05682C43.0046 3.77652 42.9279 3.55871 42.7745 3.40341C42.623 3.24811 42.3929 3.17045 42.0842 3.17045C41.7641 3.17045 41.5131 3.24053 41.3313 3.38068C41.1495 3.52083 41.0217 3.67045 40.9478 3.82955L40.3114 3.60227C40.4251 3.33712 40.5766 3.13068 40.766 2.98295C40.9573 2.83333 41.1656 2.72917 41.391 2.67045C41.6183 2.60985 41.8417 2.57955 42.0614 2.57955C42.2016 2.57955 42.3626 2.59659 42.5444 2.63068C42.7281 2.66288 42.9052 2.73011 43.0756 2.83239C43.248 2.93466 43.391 3.08902 43.5046 3.29545C43.6183 3.50189 43.6751 3.77841 43.6751 4.125V7H43.0046V6.40909H42.9705C42.9251 6.50379 42.8493 6.60511 42.7433 6.71307C42.6372 6.82102 42.4961 6.91288 42.32 6.98864C42.1438 7.06439 41.9289 7.10227 41.6751 7.10227ZM41.7773 6.5C42.0425 6.5 42.266 6.44792 42.4478 6.34375C42.6315 6.23958 42.7698 6.10511 42.8626 5.94034C42.9573 5.77557 43.0046 5.60227 43.0046 5.42045V4.80682C42.9762 4.84091 42.9137 4.87216 42.8171 4.90057C42.7224 4.92708 42.6126 4.95076 42.4876 4.97159C42.3645 4.99053 42.2442 5.00758 42.1268 5.02273C42.0112 5.03598 41.9175 5.04735 41.8455 5.05682C41.6713 5.07955 41.5084 5.11648 41.3569 5.16761C41.2073 5.21686 41.0861 5.29167 40.9933 5.39205C40.9023 5.49053 40.8569 5.625 40.8569 5.79545C40.8569 6.02841 40.9431 6.20455 41.1154 6.32386C41.2897 6.44129 41.5103 6.5 41.7773 6.5ZM46.6715 7.09091C46.2624 7.09091 45.9102 6.99432 45.6147 6.80114C45.3192 6.60795 45.092 6.34186 44.9329 6.00284C44.7738 5.66383 44.6942 5.27652 44.6942 4.84091C44.6942 4.39773 44.7757 4.00663 44.9386 3.66761C45.1033 3.3267 45.3325 3.06061 45.6261 2.86932C45.9215 2.67614 46.2662 2.57955 46.6602 2.57955C46.967 2.57955 47.2435 2.63636 47.4897 2.75C47.7359 2.86364 47.9376 3.02273 48.0948 3.22727C48.252 3.43182 48.3496 3.67045 48.3874 3.94318H47.717C47.6658 3.74432 47.5522 3.56818 47.3761 3.41477C47.2018 3.25947 46.967 3.18182 46.6715 3.18182C46.4102 3.18182 46.181 3.25 45.984 3.38636C45.7889 3.52083 45.6365 3.71117 45.5266 3.95739C45.4187 4.2017 45.3647 4.48864 45.3647 4.81818C45.3647 5.1553 45.4177 5.44886 45.5238 5.69886C45.6317 5.94886 45.7833 6.14299 45.9783 6.28125C46.1753 6.41951 46.4064 6.48864 46.6715 6.48864C46.8458 6.48864 47.0039 6.45833 47.146 6.39773C47.288 6.33712 47.4083 6.25 47.5067 6.13636C47.6052 6.02273 47.6753 5.88636 47.717 5.72727H48.3874C48.3496 5.98485 48.2558 6.21686 48.1062 6.4233C47.9585 6.62784 47.7624 6.79072 47.5181 6.91193C47.2757 7.03125 46.9935 7.09091 46.6715 7.09091ZM51.2653 2.63636V3.20455H49.0039V2.63636H51.2653ZM49.663 1.59091H50.3335V5.75C50.3335 5.93939 50.3609 6.08144 50.4158 6.17614C50.4727 6.26894 50.5446 6.33144 50.6317 6.36364C50.7208 6.39394 50.8145 6.40909 50.913 6.40909C50.9869 6.40909 51.0475 6.4053 51.0948 6.39773C51.1422 6.38826 51.18 6.38068 51.2085 6.375L51.3448 6.97727C51.2994 6.99432 51.2359 7.01136 51.1545 7.02841C51.073 7.04735 50.9698 7.05682 50.8448 7.05682C50.6554 7.05682 50.4698 7.0161 50.288 6.93466C50.1081 6.85322 49.9585 6.72917 49.8391 6.5625C49.7217 6.39583 49.663 6.18561 49.663 5.93182V1.59091ZM11.2411 8.18182V14H10.5366V8.18182H11.2411ZM13.2333 11.375V14H12.5629V9.63636H13.2106V10.3182H13.2674C13.3697 10.0966 13.525 9.91856 13.7333 9.78409C13.9416 9.64773 14.2106 9.57955 14.5401 9.57955C14.8356 9.57955 15.0941 9.64015 15.3157 9.76136C15.5373 9.88068 15.7096 10.0625 15.8327 10.3068C15.9558 10.5492 16.0174 10.8561 16.0174 11.2273V14H15.3469V11.2727C15.3469 10.9299 15.2579 10.6629 15.0799 10.4716C14.9019 10.2784 14.6576 10.1818 14.3469 10.1818C14.1329 10.1818 13.9416 10.2282 13.7731 10.321C13.6064 10.4138 13.4748 10.5492 13.3782 10.7273C13.2816 10.9053 13.2333 11.1212 13.2333 11.375ZM19.1403 9.63636V10.2045H16.8789V9.63636H19.1403ZM17.538 8.59091H18.2085V12.75C18.2085 12.9394 18.2359 13.0814 18.2908 13.1761C18.3477 13.2689 18.4196 13.3314 18.5067 13.3636C18.5958 13.3939 18.6895 13.4091 18.788 13.4091C18.8619 13.4091 18.9225 13.4053 18.9698 13.3977C19.0172 13.3883 19.055 13.3807 19.0835 13.375L19.2198 13.9773C19.1744 13.9943 19.1109 14.0114 19.0295 14.0284C18.948 14.0473 18.8448 14.0568 18.7198 14.0568C18.5304 14.0568 18.3448 14.0161 18.163 13.9347C17.9831 13.8532 17.8335 13.7292 17.7141 13.5625C17.5967 13.3958 17.538 13.1856 17.538 12.9318V8.59091ZM21.9315 14.0909C21.511 14.0909 21.1483 13.9981 20.8434 13.8125C20.5404 13.625 20.3065 13.3636 20.1417 13.0284C19.9788 12.6913 19.8974 12.2992 19.8974 11.8523C19.8974 11.4053 19.9788 11.0114 20.1417 10.6705C20.3065 10.3277 20.5356 10.0606 20.8292 9.86932C21.1246 9.67614 21.4693 9.57955 21.8633 9.57955C22.0906 9.57955 22.315 9.61742 22.5366 9.69318C22.7582 9.76894 22.9599 9.89205 23.1417 10.0625C23.3235 10.2311 23.4684 10.4545 23.5763 10.733C23.6843 11.0114 23.7383 11.3542 23.7383 11.7614V12.0455H20.3746V11.4659H23.0565C23.0565 11.2197 23.0072 11 22.9087 10.8068C22.8121 10.6136 22.6739 10.4612 22.494 10.3494C22.3159 10.2377 22.1057 10.1818 21.8633 10.1818C21.5962 10.1818 21.3652 10.2481 21.1701 10.3807C20.9769 10.5114 20.8282 10.6818 20.7241 10.892C20.6199 11.1023 20.5678 11.3277 20.5678 11.5682V11.9545C20.5678 12.2841 20.6246 12.5634 20.7383 12.7926C20.8538 13.0199 21.0138 13.1932 21.2184 13.3125C21.4229 13.4299 21.6606 13.4886 21.9315 13.4886C22.1076 13.4886 22.2667 13.464 22.4087 13.4148C22.5527 13.3636 22.6767 13.2879 22.7809 13.1875C22.8851 13.0852 22.9656 12.9583 23.0224 12.8068L23.6701 12.9886C23.6019 13.2083 23.4873 13.4015 23.3263 13.5682C23.1654 13.733 22.9665 13.8617 22.7298 13.9545C22.493 14.0455 22.2269 14.0909 21.9315 14.0909ZM24.7582 14V9.63636H25.4059V10.2955H25.4513C25.5309 10.0795 25.6748 9.90436 25.8832 9.76989C26.0915 9.63542 26.3263 9.56818 26.5877 9.56818C26.637 9.56818 26.6985 9.56913 26.7724 9.57102C26.8462 9.57292 26.9021 9.57576 26.94 9.57955V10.2614C26.9173 10.2557 26.8652 10.2472 26.7837 10.2358C26.7042 10.2225 26.6199 10.2159 26.5309 10.2159C26.3188 10.2159 26.1294 10.2604 25.9627 10.3494C25.7979 10.4366 25.6673 10.5578 25.5707 10.7131C25.476 10.8665 25.4286 11.0417 25.4286 11.2386V14H24.7582ZM27.7347 15.6364V9.63636H28.3825V10.3295H28.462C28.5112 10.2538 28.5794 10.1572 28.6665 10.0398C28.7556 9.92045 28.8825 9.81439 29.0472 9.72159C29.2139 9.62689 29.4393 9.57955 29.7234 9.57955C30.0908 9.57955 30.4147 9.6714 30.695 9.85511C30.9753 10.0388 31.194 10.2992 31.3512 10.6364C31.5084 10.9735 31.587 11.3712 31.587 11.8295C31.587 12.2917 31.5084 12.6922 31.3512 13.0312C31.194 13.3684 30.9762 13.6297 30.6978 13.8153C30.4194 13.9991 30.0984 14.0909 29.7347 14.0909C29.4544 14.0909 29.23 14.0445 29.0614 13.9517C28.8929 13.857 28.7631 13.75 28.6722 13.6307C28.5813 13.5095 28.5112 13.4091 28.462 13.3295H28.4052V15.6364H27.7347ZM28.3938 11.8182C28.3938 12.1477 28.4421 12.4384 28.5387 12.6903C28.6353 12.9403 28.7764 13.1364 28.962 13.2784C29.1476 13.4186 29.3749 13.4886 29.6438 13.4886C29.9241 13.4886 30.158 13.4148 30.3455 13.267C30.5349 13.1174 30.677 12.9167 30.7717 12.6648C30.8683 12.411 30.9165 12.1288 30.9165 11.8182C30.9165 11.5114 30.8692 11.2348 30.7745 10.9886C30.6817 10.7405 30.5406 10.5445 30.3512 10.4006C30.1637 10.2547 29.9279 10.1818 29.6438 10.1818C29.3711 10.1818 29.1419 10.2509 28.9563 10.3892C28.7707 10.5256 28.6306 10.7169 28.5359 10.9631C28.4412 11.2074 28.3938 11.4924 28.3938 11.8182ZM32.6097 14V9.63636H33.2575V10.2955H33.3029C33.3825 10.0795 33.5264 9.90436 33.7347 9.76989C33.9431 9.63542 34.1779 9.56818 34.4393 9.56818C34.4885 9.56818 34.5501 9.56913 34.6239 9.57102C34.6978 9.57292 34.7537 9.57576 34.7915 9.57955V10.2614C34.7688 10.2557 34.7167 10.2472 34.6353 10.2358C34.5558 10.2225 34.4715 10.2159 34.3825 10.2159C34.1703 10.2159 33.9809 10.2604 33.8143 10.3494C33.6495 10.4366 33.5188 10.5578 33.4222 10.7131C33.3275 10.8665 33.2802 11.0417 33.2802 11.2386V14H32.6097ZM37.283 14.0909C36.8626 14.0909 36.4999 13.9981 36.195 13.8125C35.8919 13.625 35.658 13.3636 35.4933 13.0284C35.3304 12.6913 35.2489 12.2992 35.2489 11.8523C35.2489 11.4053 35.3304 11.0114 35.4933 10.6705C35.658 10.3277 35.8872 10.0606 36.1808 9.86932C36.4762 9.67614 36.8209 9.57955 37.2148 9.57955C37.4421 9.57955 37.6665 9.61742 37.8881 9.69318C38.1097 9.76894 38.3114 9.89205 38.4933 10.0625C38.6751 10.2311 38.82 10.4545 38.9279 10.733C39.0359 11.0114 39.0898 11.3542 39.0898 11.7614V12.0455H35.7262V11.4659H38.408C38.408 11.2197 38.3588 11 38.2603 10.8068C38.1637 10.6136 38.0254 10.4612 37.8455 10.3494C37.6675 10.2377 37.4573 10.1818 37.2148 10.1818C36.9478 10.1818 36.7167 10.2481 36.5217 10.3807C36.3285 10.5114 36.1798 10.6818 36.0756 10.892C35.9715 11.1023 35.9194 11.3277 35.9194 11.5682V11.9545C35.9194 12.2841 35.9762 12.5634 36.0898 12.7926C36.2054 13.0199 36.3654 13.1932 36.57 13.3125C36.7745 13.4299 37.0122 13.4886 37.283 13.4886C37.4592 13.4886 37.6183 13.464 37.7603 13.4148C37.9042 13.3636 38.0283 13.2879 38.1325 13.1875C38.2366 13.0852 38.3171 12.9583 38.3739 12.8068L39.0217 12.9886C38.9535 13.2083 38.8389 13.4015 38.6779 13.5682C38.5169 13.733 38.3181 13.8617 38.0813 13.9545C37.8446 14.0455 37.5785 14.0909 37.283 14.0909ZM42.0075 9.63636V10.2045H39.7461V9.63636H42.0075ZM40.4052 8.59091H41.0756V12.75C41.0756 12.9394 41.1031 13.0814 41.158 13.1761C41.2148 13.2689 41.2868 13.3314 41.3739 13.3636C41.4629 13.3939 41.5567 13.4091 41.6552 13.4091C41.729 13.4091 41.7897 13.4053 41.837 13.3977C41.8844 13.3883 41.9222 13.3807 41.9506 13.375L42.087 13.9773C42.0415 13.9943 41.9781 14.0114 41.8967 14.0284C41.8152 14.0473 41.712 14.0568 41.587 14.0568C41.3976 14.0568 41.212 14.0161 41.0302 13.9347C40.8503 13.8532 40.7006 13.7292 40.5813 13.5625C40.4639 13.3958 40.4052 13.1856 40.4052 12.9318V8.59091ZM44.3001 14.1023C44.0236 14.1023 43.7726 14.0502 43.5472 13.946C43.3219 13.84 43.1429 13.6875 43.0103 13.4886C42.8777 13.2879 42.8114 13.0455 42.8114 12.7614C42.8114 12.5114 42.8607 12.3087 42.9592 12.1534C43.0576 11.9962 43.1893 11.8731 43.354 11.7841C43.5188 11.6951 43.7006 11.6288 43.8995 11.5852C44.1003 11.5398 44.302 11.5038 44.5046 11.4773C44.7698 11.4432 44.9847 11.4176 45.1495 11.4006C45.3162 11.3816 45.4374 11.3504 45.5131 11.3068C45.5908 11.2633 45.6296 11.1875 45.6296 11.0795V11.0568C45.6296 10.7765 45.5529 10.5587 45.3995 10.4034C45.248 10.2481 45.0179 10.1705 44.7092 10.1705C44.3891 10.1705 44.1381 10.2405 43.9563 10.3807C43.7745 10.5208 43.6467 10.6705 43.5728 10.8295L42.9364 10.6023C43.0501 10.3371 43.2016 10.1307 43.391 9.98295C43.5823 9.83333 43.7906 9.72917 44.016 9.67045C44.2433 9.60985 44.4667 9.57955 44.6864 9.57955C44.8266 9.57955 44.9876 9.59659 45.1694 9.63068C45.3531 9.66288 45.5302 9.73011 45.7006 9.83239C45.873 9.93466 46.016 10.089 46.1296 10.2955C46.2433 10.5019 46.3001 10.7784 46.3001 11.125V14H45.6296V13.4091H45.5955C45.5501 13.5038 45.4743 13.6051 45.3683 13.7131C45.2622 13.821 45.1211 13.9129 44.945 13.9886C44.7688 14.0644 44.5539 14.1023 44.3001 14.1023ZM44.4023 13.5C44.6675 13.5 44.891 13.4479 45.0728 13.3438C45.2565 13.2396 45.3948 13.1051 45.4876 12.9403C45.5823 12.7756 45.6296 12.6023 45.6296 12.4205V11.8068C45.6012 11.8409 45.5387 11.8722 45.4421 11.9006C45.3474 11.9271 45.2376 11.9508 45.1126 11.9716C44.9895 11.9905 44.8692 12.0076 44.7518 12.0227C44.6362 12.036 44.5425 12.0473 44.4705 12.0568C44.2963 12.0795 44.1334 12.1165 43.9819 12.1676C43.8323 12.2169 43.7111 12.2917 43.6183 12.392C43.5273 12.4905 43.4819 12.625 43.4819 12.7955C43.4819 13.0284 43.5681 13.2045 43.7404 13.3239C43.9147 13.4413 44.1353 13.5 44.4023 13.5ZM49.4215 9.63636V10.2045H47.1602V9.63636H49.4215ZM47.8192 8.59091H48.4897V12.75C48.4897 12.9394 48.5172 13.0814 48.5721 13.1761C48.6289 13.2689 48.7009 13.3314 48.788 13.3636C48.877 13.3939 48.9708 13.4091 49.0692 13.4091C49.1431 13.4091 49.2037 13.4053 49.2511 13.3977C49.2984 13.3883 49.3363 13.3807 49.3647 13.375L49.5011 13.9773C49.4556 13.9943 49.3922 14.0114 49.3107 14.0284C49.2293 14.0473 49.1261 14.0568 49.0011 14.0568C48.8117 14.0568 48.6261 14.0161 48.4442 13.9347C48.2643 13.8532 48.1147 13.7292 47.9954 13.5625C47.878 13.3958 47.8192 13.1856 47.8192 12.9318V8.59091ZM50.43 14V9.63636H51.1005V14H50.43ZM50.771 8.90909C50.6403 8.90909 50.5276 8.86458 50.4329 8.77557C50.3401 8.68655 50.2937 8.57955 50.2937 8.45455C50.2937 8.32955 50.3401 8.22254 50.4329 8.13352C50.5276 8.04451 50.6403 8 50.771 8C50.9016 8 51.0134 8.04451 51.1062 8.13352C51.2009 8.22254 51.2482 8.32955 51.2482 8.45455C51.2482 8.57955 51.2009 8.68655 51.1062 8.77557C51.0134 8.86458 50.9016 8.90909 50.771 8.90909ZM54.1012 14.0909C53.7073 14.0909 53.3616 13.9972 53.0643 13.8097C52.7688 13.6222 52.5378 13.3598 52.3711 13.0227C52.2063 12.6856 52.1239 12.2917 52.1239 11.8409C52.1239 11.3864 52.2063 10.9896 52.3711 10.6506C52.5378 10.3116 52.7688 10.0483 53.0643 9.8608C53.3616 9.6733 53.7073 9.57955 54.1012 9.57955C54.4951 9.57955 54.8398 9.6733 55.1353 9.8608C55.4326 10.0483 55.6637 10.3116 55.8285 10.6506C55.9951 10.9896 56.0785 11.3864 56.0785 11.8409C56.0785 12.2917 55.9951 12.6856 55.8285 13.0227C55.6637 13.3598 55.4326 13.6222 55.1353 13.8097C54.8398 13.9972 54.4951 14.0909 54.1012 14.0909ZM54.1012 13.4886C54.4004 13.4886 54.6467 13.4119 54.8398 13.2585C55.033 13.1051 55.176 12.9034 55.2688 12.6534C55.3616 12.4034 55.408 12.1326 55.408 11.8409C55.408 11.5492 55.3616 11.2775 55.2688 11.0256C55.176 10.7737 55.033 10.5701 54.8398 10.4148C54.6467 10.2595 54.4004 10.1818 54.1012 10.1818C53.802 10.1818 53.5558 10.2595 53.3626 10.4148C53.1694 10.5701 53.0264 10.7737 52.9336 11.0256C52.8408 11.2775 52.7944 11.5492 52.7944 11.8409C52.7944 12.1326 52.8408 12.4034 52.9336 12.6534C53.0264 12.9034 53.1694 13.1051 53.3626 13.2585C53.5558 13.4119 53.802 13.4886 54.1012 13.4886ZM57.7724 11.375V14H57.1019V9.63636H57.7496V10.3182H57.8065C57.9087 10.0966 58.064 9.91856 58.2724 9.78409C58.4807 9.64773 58.7496 9.57955 59.0792 9.57955C59.3746 9.57955 59.6332 9.64015 59.8548 9.76136C60.0763 9.88068 60.2487 10.0625 60.3718 10.3068C60.4949 10.5492 60.5565 10.8561 60.5565 11.2273V14H59.886V11.2727C59.886 10.9299 59.797 10.6629 59.619 10.4716C59.4409 10.2784 59.1966 10.1818 58.886 10.1818C58.672 10.1818 58.4807 10.2282 58.3121 10.321C58.1455 10.4138 58.0138 10.5492 57.9173 10.7273C57.8207 10.9053 57.7724 11.1212 57.7724 11.375Z" fill="black"/>
  <path d="M13.8078 2.36364V6H13.3675V2.82528H13.3462L12.4584 3.41477V2.96733L13.3675 2.36364H13.8078ZM13.4989 7.59801C13.1213 7.59801 12.7614 7.5406 12.4193 7.42578C12.0784 7.31096 11.7653 7.14879 11.4801 6.93928C11.196 6.73094 10.9492 6.48414 10.7397 6.19886C10.5313 5.91477 10.3697 5.60227 10.2549 5.26136C10.1401 4.91927 10.0827 4.55942 10.0827 4.18182C10.0827 3.80421 10.1401 3.44496 10.2549 3.10405C10.3697 2.76196 10.5313 2.44886 10.7397 2.16477C10.9492 1.8795 11.196 1.63269 11.4801 1.42436C11.7653 1.21484 12.0784 1.05268 12.4193 0.937855C12.7614 0.823035 13.1213 0.765625 13.4989 0.765625C13.8765 0.765625 14.2358 0.823035 14.5767 0.937855C14.9188 1.05268 15.2318 1.21484 15.5159 1.42436C15.8012 1.63269 16.048 1.8795 16.2563 2.16477C16.4659 2.44886 16.628 2.76196 16.7429 3.10405C16.8577 3.44496 16.9151 3.80421 16.9151 4.18182C16.9151 4.55942 16.8577 4.91927 16.7429 5.26136C16.628 5.60227 16.4659 5.91477 16.2563 6.19886C16.048 6.48414 15.8012 6.73094 15.5159 6.93928C15.2318 7.14879 14.9188 7.31096 14.5767 7.42578C14.2358 7.5406 13.8765 7.59801 13.4989 7.59801ZM13.4989 7.18608C13.8315 7.18608 14.1476 7.13518 14.447 7.03338C14.7477 6.93277 15.0229 6.79013 15.2727 6.60547C15.5236 6.42199 15.7408 6.20537 15.9243 5.95561C16.109 5.70466 16.2516 5.42945 16.3522 5.12997C16.4528 4.82931 16.5032 4.51326 16.5032 4.18182C16.5032 3.8492 16.4528 3.53314 16.3522 3.23366C16.2516 2.933 16.109 2.65779 15.9243 2.40803C15.7408 2.15708 15.5236 1.93987 15.2727 1.75639C15.0229 1.57173 14.7477 1.4291 14.447 1.32848C14.1476 1.22786 13.8315 1.17756 13.4989 1.17756C13.1663 1.17756 12.8496 1.22786 12.549 1.32848C12.2495 1.4291 11.9743 1.57173 11.7233 1.75639C11.4736 1.93987 11.2563 2.15708 11.0717 2.40803C10.8882 2.65779 10.7462 2.933 10.6456 3.23366C10.5449 3.53314 10.4946 3.8492 10.4946 4.18182C10.4946 4.51326 10.5449 4.82931 10.6456 5.12997C10.7462 5.42945 10.8882 5.70466 11.0717 5.95561C11.2563 6.20537 11.4736 6.42199 11.7233 6.60547C11.9743 6.79013 12.2495 6.93277 12.549 7.03338C12.8496 7.13518 13.1663 7.18608 13.4989 7.18608Z" fill="black"/>
  <path d="M87.3519 11V10.6804L88.5522 9.36648C88.693 9.21259 88.809 9.07884 88.9002 8.9652C88.9913 8.85038 89.0588 8.74266 89.1026 8.64205C89.1476 8.54025 89.1701 8.43371 89.1701 8.32244C89.1701 8.1946 89.1393 8.08393 89.0777 7.99041C89.0174 7.8969 88.9345 7.82469 88.8291 7.77379C88.7238 7.72289 88.6054 7.69744 88.474 7.69744C88.3344 7.69744 88.2124 7.72644 88.1083 7.78445C88.0053 7.84126 87.9254 7.92116 87.8686 8.02415C87.8129 8.12713 87.7851 8.24787 87.7851 8.38636H87.3661C87.3661 8.1733 87.4152 7.98627 87.5134 7.82528C87.6117 7.6643 87.7455 7.53883 87.9147 7.44886C88.0852 7.3589 88.2764 7.31392 88.4882 7.31392C88.7013 7.31392 88.8901 7.3589 89.0546 7.44886C89.2192 7.53883 89.3482 7.66016 89.4417 7.81286C89.5352 7.96555 89.582 8.13542 89.582 8.32244C89.582 8.4562 89.5577 8.587 89.5092 8.71484C89.4618 8.8415 89.379 8.98295 89.2606 9.1392C89.1434 9.29427 88.9807 9.48366 88.7723 9.70739L87.9556 10.581V10.6094H89.6459V11H87.3519ZM88.4989 12.598C88.1213 12.598 87.7614 12.5406 87.4193 12.4258C87.0784 12.311 86.7653 12.1488 86.4801 11.9393C86.196 11.7309 85.9492 11.4841 85.7397 11.1989C85.5313 10.9148 85.3697 10.6023 85.2549 10.2614C85.1401 9.91927 85.0827 9.55942 85.0827 9.18182C85.0827 8.80421 85.1401 8.44496 85.2549 8.10405C85.3697 7.76196 85.5313 7.44886 85.7397 7.16477C85.9492 6.8795 86.196 6.63269 86.4801 6.42436C86.7653 6.21484 87.0784 6.05268 87.4193 5.93786C87.7614 5.82304 88.1213 5.76562 88.4989 5.76562C88.8765 5.76562 89.2358 5.82304 89.5767 5.93786C89.9188 6.05268 90.2318 6.21484 90.5159 6.42436C90.8012 6.63269 91.048 6.8795 91.2563 7.16477C91.4659 7.44886 91.628 7.76196 91.7429 8.10405C91.8577 8.44496 91.9151 8.80421 91.9151 9.18182C91.9151 9.55942 91.8577 9.91927 91.7429 10.2614C91.628 10.6023 91.4659 10.9148 91.2563 11.1989C91.048 11.4841 90.8012 11.7309 90.5159 11.9393C90.2318 12.1488 89.9188 12.311 89.5767 12.4258C89.2358 12.5406 88.8765 12.598 88.4989 12.598ZM88.4989 12.1861C88.8315 12.1861 89.1476 12.1352 89.447 12.0334C89.7477 11.9328 90.0229 11.7901 90.2727 11.6055C90.5236 11.422 90.7408 11.2054 90.9243 10.9556C91.109 10.7047 91.2516 10.4295 91.3522 10.13C91.4528 9.82931 91.5032 9.51326 91.5032 9.18182C91.5032 8.8492 91.4528 8.53314 91.3522 8.23366C91.2516 7.933 91.109 7.65779 90.9243 7.40803C90.7408 7.15708 90.5236 6.93987 90.2727 6.75639C90.0229 6.57173 89.7477 6.4291 89.447 6.32848C89.1476 6.22786 88.8315 6.17756 88.4989 6.17756C88.1663 6.17756 87.8496 6.22786 87.549 6.32848C87.2495 6.4291 86.9743 6.57173 86.7233 6.75639C86.4736 6.93987 86.2563 7.15708 86.0717 7.40803C85.8882 7.65779 85.7462 7.933 85.6456 8.23366C85.5449 8.53314 85.4946 8.8492 85.4946 9.18182C85.4946 9.51326 85.5449 9.82931 85.6456 10.13C85.7462 10.4295 85.8882 10.7047 86.0717 10.9556C86.2563 11.2054 86.4736 11.422 86.7233 11.6055C86.9743 11.7901 87.2495 11.9328 87.549 12.0334C87.8496 12.1352 88.1663 12.1861 88.4989 12.1861Z" fill="black"/>
  <path d="M94.7045 12V6.18182H96.6705C97.1269 6.18182 97.5 6.2642 97.7898 6.42898C98.0814 6.59186 98.2973 6.8125 98.4375 7.09091C98.5777 7.36932 98.6477 7.67992 98.6477 8.02273C98.6477 8.36553 98.5777 8.67708 98.4375 8.95739C98.2992 9.23769 98.0852 9.46117 97.7955 9.62784C97.5057 9.79261 97.1345 9.875 96.6818 9.875H95.2727V9.25H96.6591C96.9716 9.25 97.2225 9.19602 97.4119 9.08807C97.6013 8.98011 97.7386 8.83428 97.8239 8.65057C97.911 8.46496 97.9545 8.25568 97.9545 8.02273C97.9545 7.78977 97.911 7.58144 97.8239 7.39773C97.7386 7.21402 97.6004 7.07008 97.4091 6.96591C97.2178 6.85985 96.964 6.80682 96.6477 6.80682H95.4091V12H94.7045ZM101.418 12.0909C101.024 12.0909 100.678 11.9972 100.381 11.8097C100.085 11.6222 99.8542 11.3598 99.6875 11.0227C99.5227 10.6856 99.4403 10.2917 99.4403 9.84091C99.4403 9.38636 99.5227 8.98958 99.6875 8.65057C99.8542 8.31155 100.085 8.0483 100.381 7.8608C100.678 7.6733 101.024 7.57955 101.418 7.57955C101.812 7.57955 102.156 7.6733 102.452 7.8608C102.749 8.0483 102.98 8.31155 103.145 8.65057C103.312 8.98958 103.395 9.38636 103.395 9.84091C103.395 10.2917 103.312 10.6856 103.145 11.0227C102.98 11.3598 102.749 11.6222 102.452 11.8097C102.156 11.9972 101.812 12.0909 101.418 12.0909ZM101.418 11.4886C101.717 11.4886 101.963 11.4119 102.156 11.2585C102.349 11.1051 102.492 10.9034 102.585 10.6534C102.678 10.4034 102.724 10.1326 102.724 9.84091C102.724 9.54924 102.678 9.27746 102.585 9.02557C102.492 8.77367 102.349 8.57008 102.156 8.41477C101.963 8.25947 101.717 8.18182 101.418 8.18182C101.118 8.18182 100.872 8.25947 100.679 8.41477C100.486 8.57008 100.343 8.77367 100.25 9.02557C100.157 9.27746 100.111 9.54924 100.111 9.84091C100.111 10.1326 100.157 10.4034 100.25 10.6534C100.343 10.9034 100.486 11.1051 100.679 11.2585C100.872 11.4119 101.118 11.4886 101.418 11.4886ZM107.509 8.61364L106.907 8.78409C106.869 8.68371 106.813 8.58617 106.739 8.49148C106.667 8.39489 106.569 8.31534 106.444 8.25284C106.319 8.19034 106.159 8.15909 105.964 8.15909C105.697 8.15909 105.474 8.22064 105.296 8.34375C105.12 8.46496 105.032 8.61932 105.032 8.80682C105.032 8.97348 105.093 9.10511 105.214 9.2017C105.335 9.2983 105.524 9.37879 105.782 9.44318L106.43 9.60227C106.82 9.69697 107.111 9.84186 107.302 10.0369C107.493 10.2301 107.589 10.4792 107.589 10.7841C107.589 11.0341 107.517 11.2576 107.373 11.4545C107.231 11.6515 107.032 11.8068 106.776 11.9205C106.521 12.0341 106.223 12.0909 105.884 12.0909C105.439 12.0909 105.071 11.9943 104.779 11.8011C104.487 11.608 104.303 11.3258 104.225 10.9545L104.862 10.7955C104.922 11.0303 105.037 11.2064 105.205 11.3239C105.376 11.4413 105.598 11.5 105.873 11.5C106.185 11.5 106.433 11.4337 106.617 11.3011C106.803 11.1667 106.896 11.0057 106.896 10.8182C106.896 10.6667 106.843 10.5398 106.737 10.4375C106.63 10.3333 106.468 10.2557 106.248 10.2045L105.521 10.0341C105.121 9.93939 104.827 9.79261 104.64 9.59375C104.454 9.39299 104.362 9.14205 104.362 8.84091C104.362 8.5947 104.431 8.37689 104.569 8.1875C104.709 7.99811 104.899 7.84943 105.14 7.74148C105.382 7.63352 105.657 7.57955 105.964 7.57955C106.396 7.57955 106.735 7.67424 106.981 7.86364C107.229 8.05303 107.405 8.30303 107.509 8.61364ZM110.496 7.63636V8.20455H108.234V7.63636H110.496ZM108.893 6.59091H109.564V10.75C109.564 10.9394 109.591 11.0814 109.646 11.1761C109.703 11.2689 109.775 11.3314 109.862 11.3636C109.951 11.3939 110.045 11.4091 110.143 11.4091C110.217 11.4091 110.278 11.4053 110.325 11.3977C110.373 11.3883 110.411 11.3807 110.439 11.375L110.575 11.9773C110.53 11.9943 110.466 12.0114 110.385 12.0284C110.304 12.0473 110.2 12.0568 110.075 12.0568C109.886 12.0568 109.7 12.0161 109.518 11.9347C109.339 11.8532 109.189 11.7292 109.07 11.5625C108.952 11.3958 108.893 11.1856 108.893 10.9318V6.59091ZM114.084 12H113.345L115.482 6.18182H116.209L118.345 12H117.607L115.868 7.10227H115.822L114.084 12ZM114.357 9.72727H117.334V10.3523H114.357V9.72727ZM119.831 9.375V12H119.161V7.63636H119.808V8.31818H119.865C119.967 8.09659 120.123 7.91856 120.331 7.78409C120.539 7.64773 120.808 7.57955 121.138 7.57955C121.433 7.57955 121.692 7.64015 121.913 7.76136C122.135 7.88068 122.307 8.0625 122.43 8.30682C122.554 8.54924 122.615 8.85606 122.615 9.22727V12H121.945V9.27273C121.945 8.92992 121.856 8.66288 121.678 8.47159C121.5 8.27841 121.255 8.18182 120.945 8.18182C120.731 8.18182 120.539 8.22822 120.371 8.32102C120.204 8.41383 120.072 8.54924 119.976 8.72727C119.879 8.9053 119.831 9.12121 119.831 9.375ZM125.124 12.1023C124.848 12.1023 124.597 12.0502 124.371 11.946C124.146 11.84 123.967 11.6875 123.835 11.4886C123.702 11.2879 123.636 11.0455 123.636 10.7614C123.636 10.5114 123.685 10.3087 123.783 10.1534C123.882 9.99621 124.013 9.87311 124.178 9.78409C124.343 9.69508 124.525 9.62879 124.724 9.58523C124.924 9.53977 125.126 9.50379 125.329 9.47727C125.594 9.44318 125.809 9.41761 125.974 9.40057C126.14 9.38163 126.262 9.35038 126.337 9.30682C126.415 9.26326 126.454 9.1875 126.454 9.07955V9.05682C126.454 8.77652 126.377 8.55871 126.224 8.40341C126.072 8.24811 125.842 8.17045 125.533 8.17045C125.213 8.17045 124.962 8.24053 124.781 8.38068C124.599 8.52083 124.471 8.67045 124.397 8.82955L123.761 8.60227C123.874 8.33712 124.026 8.13068 124.215 7.98295C124.406 7.83333 124.615 7.72917 124.84 7.67045C125.067 7.60985 125.291 7.57955 125.511 7.57955C125.651 7.57955 125.812 7.59659 125.994 7.63068C126.177 7.66288 126.354 7.73011 126.525 7.83239C126.697 7.93466 126.84 8.08902 126.954 8.29545C127.067 8.50189 127.124 8.77841 127.124 9.125V12H126.454V11.4091H126.42C126.374 11.5038 126.299 11.6051 126.192 11.7131C126.086 11.821 125.945 11.9129 125.769 11.9886C125.593 12.0644 125.378 12.1023 125.124 12.1023ZM125.227 11.5C125.492 11.5 125.715 11.4479 125.897 11.3438C126.081 11.2396 126.219 11.1051 126.312 10.9403C126.406 10.7756 126.454 10.6023 126.454 10.4205V9.80682C126.425 9.84091 126.363 9.87216 126.266 9.90057C126.172 9.92708 126.062 9.95076 125.937 9.97159C125.814 9.99053 125.693 10.0076 125.576 10.0227C125.46 10.036 125.367 10.0473 125.295 10.0568C125.121 10.0795 124.958 10.1165 124.806 10.1676C124.656 10.2169 124.535 10.2917 124.442 10.392C124.352 10.4905 124.306 10.625 124.306 10.7955C124.306 11.0284 124.392 11.2045 124.565 11.3239C124.739 11.4413 124.96 11.5 125.227 11.5ZM129.018 6.18182V12H128.348V6.18182H129.018ZM130.678 13.6364C130.565 13.6364 130.463 13.6269 130.374 13.608C130.285 13.5909 130.224 13.5739 130.19 13.5568L130.36 12.9659C130.523 13.0076 130.667 13.0227 130.792 13.0114C130.917 13 131.028 12.9441 131.124 12.8438C131.223 12.7453 131.313 12.5852 131.394 12.3636L131.519 12.0227L129.906 7.63636H130.633L131.837 11.1136H131.883L133.087 7.63636H133.815L131.962 12.6364C131.879 12.8617 131.776 13.0483 131.653 13.196C131.53 13.3456 131.387 13.4564 131.224 13.5284C131.063 13.6004 130.881 13.6364 130.678 13.6364ZM137.79 8.61364L137.188 8.78409C137.15 8.68371 137.094 8.58617 137.021 8.49148C136.949 8.39489 136.85 8.31534 136.725 8.25284C136.6 8.19034 136.44 8.15909 136.245 8.15909C135.978 8.15909 135.755 8.22064 135.577 8.34375C135.401 8.46496 135.313 8.61932 135.313 8.80682C135.313 8.97348 135.374 9.10511 135.495 9.2017C135.616 9.2983 135.806 9.37879 136.063 9.44318L136.711 9.60227C137.101 9.69697 137.392 9.84186 137.583 10.0369C137.774 10.2301 137.87 10.4792 137.87 10.7841C137.87 11.0341 137.798 11.2576 137.654 11.4545C137.512 11.6515 137.313 11.8068 137.058 11.9205C136.802 12.0341 136.504 12.0909 136.165 12.0909C135.72 12.0909 135.352 11.9943 135.06 11.8011C134.769 11.608 134.584 11.3258 134.506 10.9545L135.143 10.7955C135.203 11.0303 135.318 11.2064 135.487 11.3239C135.657 11.4413 135.879 11.5 136.154 11.5C136.467 11.5 136.715 11.4337 136.898 11.3011C137.084 11.1667 137.177 11.0057 137.177 10.8182C137.177 10.6667 137.124 10.5398 137.018 10.4375C136.912 10.3333 136.749 10.2557 136.529 10.2045L135.802 10.0341C135.402 9.93939 135.109 9.79261 134.921 9.59375C134.736 9.39299 134.643 9.14205 134.643 8.84091C134.643 8.5947 134.712 8.37689 134.85 8.1875C134.99 7.99811 135.181 7.84943 135.421 7.74148C135.664 7.63352 135.938 7.57955 136.245 7.57955C136.677 7.57955 137.016 7.67424 137.262 7.86364C137.51 8.05303 137.686 8.30303 137.79 8.61364ZM138.879 12V7.63636H139.55V12H138.879ZM139.22 6.90909C139.089 6.90909 138.977 6.86458 138.882 6.77557C138.789 6.68655 138.743 6.57955 138.743 6.45455C138.743 6.32955 138.789 6.22254 138.882 6.13352C138.977 6.04451 139.089 6 139.22 6C139.351 6 139.463 6.04451 139.555 6.13352C139.65 6.22254 139.697 6.32955 139.697 6.45455C139.697 6.57955 139.65 6.68655 139.555 6.77557C139.463 6.86458 139.351 6.90909 139.22 6.90909ZM143.869 8.61364L143.266 8.78409C143.228 8.68371 143.173 8.58617 143.099 8.49148C143.027 8.39489 142.928 8.31534 142.803 8.25284C142.678 8.19034 142.518 8.15909 142.323 8.15909C142.056 8.15909 141.834 8.22064 141.656 8.34375C141.479 8.46496 141.391 8.61932 141.391 8.80682C141.391 8.97348 141.452 9.10511 141.573 9.2017C141.694 9.2983 141.884 9.37879 142.141 9.44318L142.789 9.60227C143.179 9.69697 143.47 9.84186 143.661 10.0369C143.853 10.2301 143.948 10.4792 143.948 10.7841C143.948 11.0341 143.876 11.2576 143.732 11.4545C143.59 11.6515 143.391 11.8068 143.136 11.9205C142.88 12.0341 142.583 12.0909 142.244 12.0909C141.799 12.0909 141.43 11.9943 141.138 11.8011C140.847 11.608 140.662 11.3258 140.585 10.9545L141.221 10.7955C141.281 11.0303 141.396 11.2064 141.565 11.3239C141.735 11.4413 141.958 11.5 142.232 11.5C142.545 11.5 142.793 11.4337 142.977 11.3011C143.162 11.1667 143.255 11.0057 143.255 10.8182C143.255 10.6667 143.202 10.5398 143.096 10.4375C142.99 10.3333 142.827 10.2557 142.607 10.2045L141.88 10.0341C141.48 9.93939 141.187 9.79261 140.999 9.59375C140.814 9.39299 140.721 9.14205 140.721 8.84091C140.721 8.5947 140.79 8.37689 140.928 8.1875C141.068 7.99811 141.259 7.84943 141.499 7.74148C141.742 7.63352 142.016 7.57955 142.323 7.57955C142.755 7.57955 143.094 7.67424 143.34 7.86364C143.588 8.05303 143.764 8.30303 143.869 8.61364Z" fill="black"/>
  </g>
  <defs>
  <clipPath id="clip0_1_2">
  <rect width="151" height="68" fill="white"/>
  </clipPath>
  </defs>
  </svg>
  